<?xml version="1.0" encoding="utf-8"?>
<!-- Generator: Adobe Illustrator 24.3.0, SVG Export Plug-In . SVG Version: 6.00 Build 0)  -->
<svg version="1.1" id="Layer_1" xmlns="http://www.w3.org/2000/svg" xmlns:xlink="http://www.w3.org/1999/xlink" x="0px" y="0px"
	 viewBox="0 0 1024 247.12" style="enable-background:new 0 0 1024 247.12;" xml:space="preserve">
<style type="text/css">
	.st0{fill:url(#SVGID_1_);}
	.st1{fill:url(#SVGID_2_);}
	.st2{fill:url(#SVGID_3_);}
	.st3{fill:url(#SVGID_4_);}
	.st4{fill:url(#SVGID_5_);}
	.st5{fill:url(#SVGID_6_);}
	.st6{fill:url(#SVGID_7_);}
	.st7{fill:url(#SVGID_8_);}
	.st8{fill:url(#SVGID_9_);}
	.st9{fill:url(#SVGID_10_);}
	.st10{fill:url(#SVGID_11_);}
	.st11{fill:url(#SVGID_12_);}
	.st12{fill:#FFFFFF;}
	.st13{fill:url(#SVGID_13_);}
	.st14{fill:url(#SVGID_14_);}
</style>
<g>
	<g>
		<g>
			<g>
				<linearGradient id="SVGID_1_" gradientUnits="userSpaceOnUse" x1="260.0117" y1="109.4296" x2="281.8422" y2="141.9215">
					<stop  offset="0" style="stop-color:#2EB9EC"/>
					<stop  offset="0.2564" style="stop-color:#1B98D3"/>
					<stop  offset="0.5241" style="stop-color:#0377BA"/>
					<stop  offset="0.6279" style="stop-color:#0574B8"/>
					<stop  offset="0.7831" style="stop-color:#096AB2"/>
					<stop  offset="0.9696" style="stop-color:#0D59A8"/>
					<stop  offset="1" style="stop-color:#0E56A7"/>
				</linearGradient>
				<polygon class="st0" points="283.36,123.26 200.61,65.81 179.28,51.01 200.61,39.85 200.61,39.84 200.61,39.84 302.06,110.27 
					302.06,110.28 				"/>
				<linearGradient id="SVGID_2_" gradientUnits="userSpaceOnUse" x1="222.5423" y1="158.9018" x2="188.5273" y2="159.4095">
					<stop  offset="0" style="stop-color:#2EB9EC"/>
					<stop  offset="0.2564" style="stop-color:#1B98D3"/>
					<stop  offset="0.5241" style="stop-color:#0377BA"/>
					<stop  offset="0.6279" style="stop-color:#0574B8"/>
					<stop  offset="0.7831" style="stop-color:#096AB2"/>
					<stop  offset="0.9696" style="stop-color:#0D59A8"/>
					<stop  offset="1" style="stop-color:#0E56A7"/>
				</linearGradient>
				<polygon class="st1" points="200.61,206.67 200.61,180.7 283.36,123.26 302.06,110.28 302.06,136.24 				"/>
				<linearGradient id="SVGID_3_" gradientUnits="userSpaceOnUse" x1="192.9316" y1="179.8285" x2="181.7825" y2="144.1513">
					<stop  offset="0" style="stop-color:#2EB9EC"/>
					<stop  offset="0.2564" style="stop-color:#1B98D3"/>
					<stop  offset="0.5241" style="stop-color:#0377BA"/>
					<stop  offset="0.6279" style="stop-color:#0574B8"/>
					<stop  offset="0.7831" style="stop-color:#096AB2"/>
					<stop  offset="0.9696" style="stop-color:#0D59A8"/>
					<stop  offset="1" style="stop-color:#0E56A7"/>
				</linearGradient>
				<polygon class="st2" points="200.61,206.67 179.28,195.51 179.28,159.84 200.61,145.03 				"/>
				<linearGradient id="SVGID_4_" gradientUnits="userSpaceOnUse" x1="196.3253" y1="134.9828" x2="204.0524" y2="124.8155">
					<stop  offset="0" style="stop-color:#2EB9EC"/>
					<stop  offset="0.2564" style="stop-color:#1B98D3"/>
					<stop  offset="0.5241" style="stop-color:#0377BA"/>
					<stop  offset="0.6279" style="stop-color:#0574B8"/>
					<stop  offset="0.7831" style="stop-color:#096AB2"/>
					<stop  offset="0.9696" style="stop-color:#0D59A8"/>
					<stop  offset="1" style="stop-color:#0E56A7"/>
				</linearGradient>
				<polygon class="st3" points="179.28,159.84 179.28,133.86 194.56,123.26 200.61,127.45 213.27,136.24 200.61,145.02 
					200.61,145.03 				"/>
				<linearGradient id="SVGID_5_" gradientUnits="userSpaceOnUse" x1="195.5412" y1="110.5487" x2="137.2724" y2="67.7691">
					<stop  offset="0" style="stop-color:#12C3F4"/>
					<stop  offset="0.5722" style="stop-color:#0377BA"/>
					<stop  offset="0.624" style="stop-color:#086BB3"/>
					<stop  offset="0.6828" style="stop-color:#0A62AD"/>
					<stop  offset="0.7513" style="stop-color:#0C5BAA"/>
					<stop  offset="0.8377" style="stop-color:#0E57A7"/>
					<stop  offset="1" style="stop-color:#0E56A7"/>
				</linearGradient>
				<polygon class="st4" points="231.97,123.26 213.27,136.24 200.61,127.45 194.56,123.26 179.28,112.64 179.28,86.68 
					200.61,101.49 				"/>
				<linearGradient id="SVGID_6_" gradientUnits="userSpaceOnUse" x1="189.7342" y1="76.5954" x2="202.6357" y2="55.3459">
					<stop  offset="0" style="stop-color:#2EB9EC"/>
					<stop  offset="0.2564" style="stop-color:#1B98D3"/>
					<stop  offset="0.5241" style="stop-color:#0377BA"/>
					<stop  offset="0.6279" style="stop-color:#0574B8"/>
					<stop  offset="0.7831" style="stop-color:#096AB2"/>
					<stop  offset="0.9696" style="stop-color:#0D59A8"/>
					<stop  offset="1" style="stop-color:#0E56A7"/>
				</linearGradient>
				<polygon class="st5" points="200.61,65.81 200.61,101.49 179.28,86.68 179.28,51 				"/>
			</g>
		</g>
		<g>
			<g>
				
					<linearGradient id="SVGID_7_" gradientUnits="userSpaceOnUse" x1="843.7145" y1="1613.3928" x2="865.545" y2="1645.8846" gradientTransform="matrix(-1 0 0 -1 915.0407 1750.4749)">
					<stop  offset="0" style="stop-color:#2EB9EC"/>
					<stop  offset="0.2564" style="stop-color:#1B98D3"/>
					<stop  offset="0.5241" style="stop-color:#0377BA"/>
					<stop  offset="0.6279" style="stop-color:#0574B8"/>
					<stop  offset="0.7831" style="stop-color:#096AB2"/>
					<stop  offset="0.9696" style="stop-color:#0D59A8"/>
					<stop  offset="1" style="stop-color:#0E56A7"/>
				</linearGradient>
				<polygon class="st6" points="47.98,123.26 130.73,180.7 152.06,195.5 130.73,206.66 130.73,206.67 130.72,206.67 29.28,136.24 
					29.28,136.23 				"/>
				
					<linearGradient id="SVGID_8_" gradientUnits="userSpaceOnUse" x1="806.2451" y1="1662.865" x2="772.2302" y2="1663.3727" gradientTransform="matrix(-1 0 0 -1 915.0407 1750.4749)">
					<stop  offset="0" style="stop-color:#2EB9EC"/>
					<stop  offset="0.2564" style="stop-color:#1B98D3"/>
					<stop  offset="0.5241" style="stop-color:#0377BA"/>
					<stop  offset="0.6279" style="stop-color:#0574B8"/>
					<stop  offset="0.7831" style="stop-color:#096AB2"/>
					<stop  offset="0.9696" style="stop-color:#0D59A8"/>
					<stop  offset="1" style="stop-color:#0E56A7"/>
				</linearGradient>
				<polygon class="st7" points="130.73,39.84 130.73,65.81 47.98,123.26 29.28,136.23 29.28,110.27 				"/>
				
					<linearGradient id="SVGID_9_" gradientUnits="userSpaceOnUse" x1="776.6345" y1="1683.7917" x2="765.4853" y2="1648.1145" gradientTransform="matrix(-1 0 0 -1 915.0407 1750.4749)">
					<stop  offset="0" style="stop-color:#2EB9EC"/>
					<stop  offset="0.2564" style="stop-color:#1B98D3"/>
					<stop  offset="0.5241" style="stop-color:#0377BA"/>
					<stop  offset="0.6279" style="stop-color:#0574B8"/>
					<stop  offset="0.7831" style="stop-color:#096AB2"/>
					<stop  offset="0.9696" style="stop-color:#0D59A8"/>
					<stop  offset="1" style="stop-color:#0E56A7"/>
				</linearGradient>
				<polygon class="st8" points="130.73,39.84 152.06,51 152.06,86.67 130.73,101.48 				"/>
				
					<linearGradient id="SVGID_10_" gradientUnits="userSpaceOnUse" x1="780.0281" y1="1638.946" x2="787.7552" y2="1628.7787" gradientTransform="matrix(-1 0 0 -1 915.0407 1750.4749)">
					<stop  offset="0" style="stop-color:#2EB9EC"/>
					<stop  offset="0.2564" style="stop-color:#1B98D3"/>
					<stop  offset="0.5241" style="stop-color:#0377BA"/>
					<stop  offset="0.6279" style="stop-color:#0574B8"/>
					<stop  offset="0.7831" style="stop-color:#096AB2"/>
					<stop  offset="0.9696" style="stop-color:#0D59A8"/>
					<stop  offset="1" style="stop-color:#0E56A7"/>
				</linearGradient>
				<polygon class="st9" points="152.06,86.67 152.06,112.65 136.78,123.26 130.73,119.06 118.07,110.27 130.73,101.49 
					130.73,101.48 				"/>
				
					<linearGradient id="SVGID_11_" gradientUnits="userSpaceOnUse" x1="779.244" y1="1614.5118" x2="720.9752" y2="1571.7323" gradientTransform="matrix(-1 0 0 -1 915.0407 1750.4749)">
					<stop  offset="0" style="stop-color:#12C3F4"/>
					<stop  offset="0.5722" style="stop-color:#0377BA"/>
					<stop  offset="0.624" style="stop-color:#086BB3"/>
					<stop  offset="0.6828" style="stop-color:#0A62AD"/>
					<stop  offset="0.7513" style="stop-color:#0C5BAA"/>
					<stop  offset="0.8377" style="stop-color:#0E57A7"/>
					<stop  offset="1" style="stop-color:#0E56A7"/>
				</linearGradient>
				<polygon class="st10" points="99.37,123.26 118.07,110.27 130.73,119.06 136.78,123.26 152.06,133.87 152.06,159.83 
					130.73,145.02 				"/>
				
					<linearGradient id="SVGID_12_" gradientUnits="userSpaceOnUse" x1="773.437" y1="1580.5586" x2="786.3386" y2="1559.3091" gradientTransform="matrix(-1 0 0 -1 915.0407 1750.4749)">
					<stop  offset="0" style="stop-color:#2EB9EC"/>
					<stop  offset="0.2564" style="stop-color:#1B98D3"/>
					<stop  offset="0.5241" style="stop-color:#0377BA"/>
					<stop  offset="0.6279" style="stop-color:#0574B8"/>
					<stop  offset="0.7831" style="stop-color:#096AB2"/>
					<stop  offset="0.9696" style="stop-color:#0D59A8"/>
					<stop  offset="1" style="stop-color:#0E56A7"/>
				</linearGradient>
				<polygon class="st11" points="130.73,180.7 130.73,145.02 152.06,159.83 152.06,195.51 				"/>
			</g>
		</g>
	</g>
	<g>
		<g>
			<path class="st12" d="M426.93,94.96l-18.95,63.94h-11.87l-13.43-48.39l-14.26,48.39L356.64,159l-18.12-64.03h11.13l13.25,52.08
				l14.35-52.08h11.78l13.34,51.8l13.34-51.8H426.93z"/>
			<path class="st12" d="M481.67,137.47h-38.73c0.31,4.05,1.81,7.3,4.51,9.75c2.7,2.45,6.01,3.68,9.94,3.68
				c5.64,0,9.63-2.36,11.96-7.08h11.32c-1.54,4.66-4.31,8.48-8.33,11.45c-4.02,2.98-9,4.46-14.95,4.46c-4.85,0-9.19-1.09-13.02-3.27
				c-3.83-2.17-6.84-5.24-9.02-9.2c-2.18-3.95-3.27-8.54-3.27-13.75c0-5.21,1.06-9.8,3.18-13.75c2.12-3.96,5.09-7.01,8.92-9.15
				c3.83-2.15,8.23-3.22,13.2-3.22c4.78,0,9.05,1.04,12.79,3.13c3.74,2.08,6.65,5.02,8.74,8.79c2.08,3.77,3.13,8.11,3.13,13.02
				C482.04,134.22,481.91,135.94,481.67,137.47z M471.09,129c-0.06-3.86-1.44-6.96-4.14-9.29c-2.7-2.33-6.04-3.49-10.03-3.49
				c-3.62,0-6.72,1.15-9.29,3.45c-2.58,2.3-4.11,5.41-4.6,9.34H471.09z"/>
			<path class="st12" d="M502.83,90.82v68.08h-10.49V90.82H502.83z"/>
			<path class="st12" d="M527.12,90.82v68.08h-10.49V90.82H527.12z"/>
			<path class="st12" d="M541.2,109.46c2.76-5,6.61-8.89,11.55-11.68s10.53-4.19,16.79-4.19c7.67,0,14.23,2.02,19.69,6.07
				c5.46,4.05,9.11,9.57,10.95,16.56h-17.3c-1.29-2.7-3.11-4.75-5.47-6.17c-2.36-1.41-5.05-2.11-8.05-2.11
				c-4.85,0-8.77,1.69-11.78,5.06c-3.01,3.37-4.51,7.88-4.51,13.53c0,5.64,1.5,10.15,4.51,13.52c3,3.37,6.93,5.06,11.78,5.06
				c3,0,5.69-0.7,8.05-2.11s4.19-3.46,5.47-6.17h17.3c-1.84,6.99-5.49,12.5-10.95,16.52c-5.46,4.02-12.02,6.02-19.69,6.02
				c-6.26,0-11.85-1.39-16.79-4.18c-4.94-2.79-8.79-6.67-11.55-11.64c-2.76-4.97-4.14-10.64-4.14-17.02
				C537.05,120.14,538.43,114.46,541.2,109.46z"/>
			<path class="st12" d="M632.46,109.46c2.76-1.63,5.83-2.44,9.2-2.44v16.66h-4.32c-3.92,0-6.87,0.84-8.83,2.53
				c-1.96,1.69-2.94,4.64-2.94,8.88v23.83h-15.73v-51.34h15.73v8.55C627.4,113.31,629.7,111.08,632.46,109.46z"/>
			<path class="st12" d="M649.07,119.25c1.99-3.99,4.71-7.05,8.14-9.2c3.43-2.14,7.27-3.22,11.5-3.22c3.62,0,6.79,0.74,9.52,2.21
				c2.73,1.47,4.83,3.4,6.3,5.8v-7.27h15.73v51.34h-15.73v-7.27c-1.54,2.39-3.67,4.32-6.4,5.8c-2.73,1.47-5.9,2.21-9.52,2.21
				c-4.17,0-7.98-1.09-11.41-3.27c-3.44-2.18-6.15-5.27-8.14-9.29c-1.99-4.02-2.99-8.66-2.99-13.94S647.07,123.24,649.07,119.25z
				 M681.27,123.94c-2.18-2.27-4.83-3.4-7.96-3.4s-5.78,1.12-7.96,3.36c-2.18,2.24-3.27,5.32-3.27,9.25s1.09,7.04,3.27,9.34
				c2.18,2.3,4.83,3.45,7.96,3.45s5.78-1.13,7.96-3.4c2.18-2.27,3.27-5.37,3.27-9.29S683.44,126.22,681.27,123.94z"/>
			<path class="st12" d="M737.44,120.63h-8.46v38.27h-15.73v-38.27h-5.71v-13.06h5.71v-1.47c0-6.32,1.81-11.12,5.43-14.4
				c3.62-3.28,8.92-4.92,15.92-4.92c1.16,0,2.02,0.03,2.58,0.09v13.34c-3-0.18-5.12,0.25-6.35,1.29c-1.23,1.04-1.84,2.91-1.84,5.61
				v0.46h8.46V120.63z"/>
			<path class="st12" d="M773.41,145.57v13.34h-8c-5.71,0-10.15-1.39-13.34-4.19c-3.19-2.79-4.78-7.34-4.78-13.66v-20.42h-6.26
				v-13.06h6.26V95.06h15.73v12.51h10.3v13.06h-10.3v20.61c0,1.54,0.37,2.64,1.11,3.31c0.73,0.67,1.96,1.01,3.68,1.01H773.41z"/>
			<path class="st12" d="M830.27,137.01h-35.61c0.25,3.19,1.27,5.63,3.08,7.32c1.81,1.69,4.03,2.53,6.67,2.53
				c3.92,0,6.66-1.66,8.19-4.97h16.75c-0.86,3.37-2.41,6.41-4.65,9.11c-2.24,2.7-5.05,4.82-8.42,6.35s-7.14,2.3-11.32,2.3
				c-5.03,0-9.51-1.07-13.43-3.22c-3.92-2.14-6.99-5.21-9.2-9.2c-2.21-3.99-3.31-8.65-3.31-13.99c0-5.33,1.09-10,3.27-13.98
				c2.18-3.99,5.23-7.05,9.15-9.2c3.92-2.14,8.43-3.22,13.53-3.22c4.97,0,9.38,1.05,13.25,3.13c3.86,2.08,6.88,5.06,9.06,8.92
				c2.18,3.86,3.27,8.37,3.27,13.53C830.54,133.88,830.45,135.41,830.27,137.01z M814.44,128.27c0-2.7-0.92-4.85-2.76-6.44
				s-4.14-2.39-6.9-2.39c-2.64,0-4.86,0.76-6.67,2.3c-1.81,1.53-2.93,3.71-3.36,6.53H814.44z"/>
			<path class="st12" d="M838.68,119.25c1.99-3.99,4.71-7.05,8.14-9.2c3.43-2.14,7.27-3.22,11.5-3.22c3.37,0,6.45,0.71,9.25,2.12
				c2.79,1.41,4.98,3.31,6.58,5.7V90.82h15.73v68.08h-15.73v-7.36c-1.47,2.46-3.57,4.42-6.3,5.89c-2.73,1.47-5.9,2.21-9.52,2.21
				c-4.23,0-8.07-1.09-11.5-3.27c-3.44-2.18-6.15-5.27-8.14-9.29c-1.99-4.02-2.99-8.66-2.99-13.94S836.69,123.24,838.68,119.25z
				 M870.88,123.94c-2.18-2.27-4.83-3.4-7.96-3.4s-5.78,1.12-7.96,3.36c-2.18,2.24-3.27,5.32-3.27,9.25s1.09,7.04,3.27,9.34
				c2.18,2.3,4.83,3.45,7.96,3.45s5.78-1.13,7.96-3.4c2.18-2.27,3.27-5.37,3.27-9.29S873.06,126.22,870.88,123.94z"/>
			<linearGradient id="SVGID_13_" gradientUnits="userSpaceOnUse" x1="928.6594" y1="71.0609" x2="928.6594" y2="177.8753">
				<stop  offset="0" style="stop-color:#48A4DB"/>
				<stop  offset="0.5615" style="stop-color:#0377BA"/>
				<stop  offset="1" style="stop-color:#0E56A7"/>
			</linearGradient>
			<path class="st13" d="M936.53,94.32v64.59h-15.73V94.32H936.53z"/>
			<linearGradient id="SVGID_14_" gradientUnits="userSpaceOnUse" x1="969.4163" y1="71.0609" x2="969.4163" y2="177.8753">
				<stop  offset="0" style="stop-color:#48A4DB"/>
				<stop  offset="0.5615" style="stop-color:#0377BA"/>
				<stop  offset="1" style="stop-color:#0E56A7"/>
			</linearGradient>
			<path class="st14" d="M994.4,94.32v12.61h-17.11v51.98h-15.73v-51.98h-17.11V94.32H994.4z"/>
		</g>
	</g>
</g>
</svg>
